<?xml version="1.0" encoding="UTF-8" standalone="no"?>
<!-- Created with Inkscape (http://www.inkscape.org/) -->

<svg
   xmlns:dc="http://purl.org/dc/elements/1.1/"
   xmlns:cc="http://creativecommons.org/ns#"
   xmlns:rdf="http://www.w3.org/1999/02/22-rdf-syntax-ns#"
   xmlns:svg="http://www.w3.org/2000/svg"
   xmlns="http://www.w3.org/2000/svg"
   xmlns:xlink="http://www.w3.org/1999/xlink"
   xmlns:sodipodi="http://sodipodi.sourceforge.net/DTD/sodipodi-0.dtd"
   xmlns:inkscape="http://www.inkscape.org/namespaces/inkscape"
   width="210mm"
   height="297mm"
   id="svg2"
   version="1.1"
   inkscape:version="0.48.1 "
   sodipodi:docname="logo.svg">
  <defs
     id="defs4">
    <path
       style="fill:none;stroke:none;stroke-width:1;marker-start:none"
       d="m 86.351148,175.7018 c 13.711122,-35.51463 53.616472,-53.18987 89.131102,-39.47874 35.51461,13.71111 53.18985,53.61646 39.47871,89.13109 -13.7111,35.51462 -53.61647,53.18986 -89.13106,39.47873 C 90.315252,251.12175 72.640038,211.2164 86.351148,175.7018 z"
       id="path2997-1"
       inkscape:connector-curvature="0" />
  </defs>
  <sodipodi:namedview
     id="base"
     pagecolor="#ffffff"
     bordercolor="#666666"
     borderopacity="1.0"
     inkscape:pageopacity="0.0"
     inkscape:pageshadow="2"
     inkscape:zoom="2.8"
     inkscape:cx="163.276"
     inkscape:cy="910.00149"
     inkscape:document-units="px"
     inkscape:current-layer="layer1"
     showgrid="false"
     inkscape:window-width="786"
     inkscape:window-height="640"
     inkscape:window-x="2608"
     inkscape:window-y="175"
     inkscape:window-maximized="0" />
  <metadata
     id="metadata7">
    <rdf:RDF>
      <cc:Work
         rdf:about="">
        <dc:format>image/svg+xml</dc:format>
        <dc:type
           rdf:resource="http://purl.org/dc/dcmitype/StillImage" />
        <dc:title />
      </cc:Work>
    </rdf:RDF>
  </metadata>
  <g
     inkscape:label="Calque 1"
     inkscape:groupmode="layer"
     id="layer1">
    <flowRoot
       xml:space="preserve"
       id="flowRoot2985"
       style="fill:black;stroke:none;stroke-opacity:1;stroke-width:1px;stroke-linejoin:miter;stroke-linecap:butt;fill-opacity:1;font-family:Zephyrean BRK;font-style:normal;font-weight:normal;font-size:40px;line-height:125%;letter-spacing:0px;word-spacing:0px;-inkscape-font-specification:Zephyrean BRK;font-stretch:normal;font-variant:normal"><flowRegion
         id="flowRegion2987"><rect
           id="rect2989"
           width="464.28571"
           height="102.14286"
           x="37.857143"
           y="93.790756" /></flowRegion><flowPara
         id="flowPara2991" /></flowRoot>    <text
       xml:space="preserve"
       style="font-size:40px;font-style:normal;font-variant:normal;font-weight:normal;font-stretch:normal;line-height:125%;letter-spacing:0px;word-spacing:0px;fill:#000000;fill-opacity:1;stroke:none;font-family:Zephyrean BRK;-inkscape-font-specification:Zephyrean BRK"
       id="text2993"
       sodipodi:linespacing="125%"><textPath
         xlink:href="#path2997"
         id="textPath3000"
         style="font-size:40px;font-style:normal;font-variant:normal;font-weight:bold;font-stretch:normal;text-align:start;line-height:125%;writing-mode:lr-tb;text-anchor:start;font-family:'tutano.cc';-inkscape-font-specification:'tutano.cc Bold'"><tspan
   rotate="0 0 0 0 0 0 0 0 0 0"
   id="tspan2995"
   style="font-size:40px;font-style:normal;font-variant:normal;font-weight:bold;font-stretch:normal;text-align:start;line-height:125%;writing-mode:lr-tb;text-anchor:start;font-family:'tutano.cc';-inkscape-font-specification:'tutano.cc Bold'">Fantastag</tspan></textPath></text>
    <path
       style="fill:none;stroke:none;stroke-width:1;stroke-linecap:butt;stroke-linejoin:round;stroke-miterlimit:4;stroke-opacity:1;stroke-dasharray:none;stroke-dashoffset:0;marker-start:none"
       d="m 86.351148,175.7018 c 13.711122,-35.51463 53.616472,-53.18987 89.131102,-39.47874 35.51461,13.71111 53.18985,53.61646 39.47871,89.13109 -13.7111,35.51462 -53.61647,53.18986 -89.13106,39.47873 C 90.315252,251.12175 72.640038,211.2164 86.351148,175.7018 z"
       id="path2997"
       inkscape:connector-curvature="0" />
    <path
       sodipodi:type="arc"
       style="fill:none;stroke:#000000;stroke-width:6.19127514;stroke-linecap:round;stroke-linejoin:round;stroke-miterlimit:4;stroke-opacity:1;stroke-dasharray:none;stroke-dashoffset:0"
       id="path3008"
       sodipodi:cx="170.35715"
       sodipodi:cy="372.71933"
       sodipodi:rx="43.92857"
       sodipodi:ry="43.92857"
       d="M 214.28572,372.71933 A 43.92857,43.92857 0 0 1 138.1802,402.62524"
       transform="matrix(-1.13443,-0.42487082,0.42487082,-1.13443,185.55538,695.73671)"
       sodipodi:start="0"
       sodipodi:end="2.392759"
       sodipodi:open="true" />
    <path
       sodipodi:type="arc"
       style="fill:none;stroke:#000000;stroke-width:11.11445839;stroke-linecap:round;stroke-linejoin:round;stroke-miterlimit:4;stroke-opacity:1;stroke-dasharray:none;stroke-dashoffset:0"
       id="path3008-1"
       sodipodi:cx="170.35715"
       sodipodi:cy="372.71933"
       sodipodi:rx="43.92857"
       sodipodi:ry="43.92857"
       d="m 214.28572,372.71933 a 43.92857,43.92857 0 0 1 -79.10813,26.30813"
       transform="matrix(-0.6400229,-0.21382538,0.21382538,-0.6400229,179.99014,475.50603)"
       sodipodi:start="0"
       sodipodi:end="2.4994854"
       sodipodi:open="true"
       inkscape:transform-center-y="-19.391139"
       inkscape:transform-center-x="-0.15732223" />
    <path
       sodipodi:type="arc"
       style="fill:#000000;fill-opacity:1;stroke:#000000;stroke-width:38.43750763;stroke-linecap:round;stroke-linejoin:round;stroke-miterlimit:4;stroke-opacity:1;stroke-dasharray:none;stroke-dashoffset:0"
       id="path3008-8"
       sodipodi:cx="170.35715"
       sodipodi:cy="372.71933"
       sodipodi:rx="43.92857"
       sodipodi:ry="43.92857"
       d="m 214.28572,372.71933 a 43.92857,43.92857 0 1 1 -87.85714,0 43.92857,43.92857 0 1 1 87.85714,0 z"
       transform="matrix(0.13008124,0,0,0.13008124,128.49579,152.04418)" />
    <g
       id="g3041"
       transform="translate(-14.615644,-21.560443)">
      <g
         id="text2993-7"
         style="font-size:40px;font-style:normal;font-variant:normal;font-weight:normal;font-stretch:normal;line-height:125%;letter-spacing:0px;word-spacing:0px;fill:#cccccc;fill-opacity:1;stroke:none;font-family:Zephyrean BRK;-inkscape-font-specification:Zephyrean BRK"
         transform="translate(-3.8523797,-3.544822)">
        <path
           style="line-height:125%;fill:#000000;font-family:'tutano.cc';-inkscape-font-specification:'tutano.cc Bold'"
           d="m 90.342459,175.96425 c -0.173203,0.017 -0.357468,0.0414 -0.53125,0.0937 -0.695106,0.20946 -1.205336,0.65718 -1.5625,1.34375 -0.08599,0.16535 -0.190267,0.35451 -0.3125,0.53125 -0.08636,0.16607 -0.190335,0.32465 -0.3125,0.53125 -0.122139,0.20662 -0.21738,0.45012 -0.28125,0.6875 -0.50855,1.20869 -0.78088,2.44172 -0.8125,3.6875 -0.01145,0.45137 0.01669,0.87271 0.0625,1.3125 l 5.53125,-0.75 c -0.04003,-0.55216 0.0068,-1.11697 0.1875,-1.6875 0.137717,-0.4393 0.291786,-0.81414 0.5,-1.15625 0.134621,-0.20057 0.284037,-0.38572 0.40625,-0.5625 0.357159,-0.68657 0.399849,-1.37973 0.125,-2.09375 -0.274834,-0.71398 -0.782154,-1.26783 -1.46875,-1.625 -0.514393,-0.26757 -1.011642,-0.36341 -1.53125,-0.3125 z"
           id="path3021"
           inkscape:connector-curvature="0"
           sodipodi:nodetypes="scccccccccccscs" />
      </g>
    </g>
  </g>
</svg>
