<?xml version="1.0" encoding="UTF-8" standalone="no"?>
<!-- Created with Inkscape (http://www.inkscape.org/) -->

<svg
   xmlns:dc="http://purl.org/dc/elements/1.1/"
   xmlns:cc="http://creativecommons.org/ns#"
   xmlns:rdf="http://www.w3.org/1999/02/22-rdf-syntax-ns#"
   xmlns:svg="http://www.w3.org/2000/svg"
   xmlns="http://www.w3.org/2000/svg"
   xmlns:sodipodi="http://sodipodi.sourceforge.net/DTD/sodipodi-0.dtd"
   xmlns:inkscape="http://www.inkscape.org/namespaces/inkscape"
   width="210mm"
   height="297mm"
   id="svg3025"
   version="1.1"
   inkscape:version="0.48.1 "
   sodipodi:docname="Nouveau document 2">
  <defs
     id="defs3027" />
  <sodipodi:namedview
     id="base"
     pagecolor="#ffffff"
     bordercolor="#666666"
     borderopacity="1.0"
     inkscape:pageopacity="0.0"
     inkscape:pageshadow="2"
     inkscape:zoom="0.175"
     inkscape:cx="511.8827"
     inkscape:cy="392.57883"
     inkscape:document-units="px"
     inkscape:current-layer="layer1"
     showgrid="false"
     inkscape:window-width="511"
     inkscape:window-height="425"
     inkscape:window-x="25"
     inkscape:window-y="25"
     inkscape:window-maximized="0" />
  <metadata
     id="metadata3030">
    <rdf:RDF>
      <cc:Work
         rdf:about="">
        <dc:format>image/svg+xml</dc:format>
        <dc:type
           rdf:resource="http://purl.org/dc/dcmitype/StillImage" />
        <dc:title></dc:title>
      </cc:Work>
    </rdf:RDF>
  </metadata>
  <g
     inkscape:label="Calque 1"
     inkscape:groupmode="layer"
     id="layer1">
    <g
       transform="matrix(2.3131976,0,0,2.3131976,-724.10547,583.96918)"
       id="g14101">
      <text
         sodipodi:linespacing="125%"
         id="text13542"
         y="-172.56364"
         x="358.32224"
         style="font-size:40px;font-style:normal;font-variant:normal;font-weight:normal;font-stretch:normal;line-height:125%;letter-spacing:3px;word-spacing:0px;fill:#000000;fill-opacity:1;stroke:none;font-family:Zephyrean BRK;-inkscape-font-specification:Zephyrean BRK"
         xml:space="preserve"><tspan
           y="-172.56364"
           x="358.32224"
           id="tspan13544"
           sodipodi:role="line">TER API XEL</tspan></text>
      <g
         transform="matrix(0.70184332,0,0,0.70184332,246.86005,-322.94542)"
         id="g14096">
        <path
           style="font-size:medium;font-style:normal;font-variant:normal;font-weight:normal;font-stretch:normal;text-indent:0;text-align:start;text-decoration:none;line-height:normal;letter-spacing:normal;word-spacing:normal;text-transform:none;direction:ltr;block-progression:tb;writing-mode:lr-tb;text-anchor:start;baseline-shift:baseline;color:#000000;fill:#000000;fill-opacity:1;stroke:none;stroke-width:5;marker:none;visibility:visible;display:inline;overflow:visible;enable-background:accumulate;font-family:Sans;-inkscape-font-specification:Sans"
           d="m 357.6875,158.0625 c -1.30896,1.3e-4 -2.49987,1.19104 -2.5,2.5 l 0,67 c 1.3e-4,1.30896 1.19104,2.49987 2.5,2.5 l 95,14 c 1.30896,-1.3e-4 2.49987,-1.19104 2.5,-2.5 l 0,-95 c -1.3e-4,-1.30896 -1.19104,-2.49987 -2.5,-2.5 z m 2.5,5 90,-14 0,90 -90,-14 z"
           id="rect13546"
           inkscape:connector-curvature="0"
           sodipodi:nodetypes="cccccccccccccc" />
        <path
           style="font-size:medium;font-style:normal;font-variant:normal;font-weight:normal;font-stretch:normal;text-indent:0;text-align:start;text-decoration:none;line-height:normal;letter-spacing:normal;word-spacing:normal;text-transform:none;direction:ltr;block-progression:tb;writing-mode:lr-tb;text-anchor:start;baseline-shift:baseline;color:#000000;fill:#000000;fill-opacity:1;stroke:none;stroke-width:5;marker:none;visibility:visible;display:inline;overflow:visible;enable-background:accumulate;font-family:Sans;-inkscape-font-specification:Sans"
           d="m 147.6875,144.0625 c -1.30896,1.3e-4 -2.49987,1.19104 -2.5,2.5 l 0,95 c 1.3e-4,1.30896 1.19104,2.49987 2.5,2.5 l 95,-14 c 1.30896,-1.3e-4 2.49987,-1.19104 2.5,-2.5 l 0,-67 c -1.3e-4,-1.30896 -1.19104,-2.49987 -2.5,-2.5 z m 2.5,5 90,14 0,62 -90,14 z"
           id="rect13546-0"
           inkscape:connector-curvature="0"
           sodipodi:nodetypes="cccccccccccccc" />
        <path
           style="font-size:medium;font-style:normal;font-variant:normal;font-weight:normal;font-stretch:normal;text-indent:0;text-align:start;text-decoration:none;line-height:normal;letter-spacing:normal;word-spacing:normal;text-transform:none;direction:ltr;block-progression:tb;writing-mode:lr-tb;text-anchor:start;baseline-shift:baseline;color:#000000;fill:#000000;fill-opacity:1;stroke:none;stroke-width:5;marker:none;visibility:visible;display:inline;overflow:visible;enable-background:accumulate;font-family:Sans;-inkscape-font-specification:Sans"
           d="m 252.6875,158.0625 c -1.30896,1.3e-4 -2.49987,1.19104 -2.5,2.5 l 0,67 c 1.3e-4,1.30896 1.19104,2.49987 2.5,2.5 l 95,0 c 1.30896,-1.3e-4 2.49987,-1.19104 2.5,-2.5 l 0,-67 c -1.3e-4,-1.30896 -1.19104,-2.49987 -2.5,-2.5 z m 2.5,5 90,0 0,62 -90,0 z"
           id="rect13546-6"
           inkscape:connector-curvature="0"
           sodipodi:nodetypes="cccccccccccccc" />
      </g>
    </g>
  </g>
</svg>
