<?xml version="1.0" encoding="UTF-8" standalone="no"?>
<!-- Created with Inkscape (http://www.inkscape.org/) -->

<svg
   xmlns:dc="http://purl.org/dc/elements/1.1/"
   xmlns:cc="http://creativecommons.org/ns#"
   xmlns:rdf="http://www.w3.org/1999/02/22-rdf-syntax-ns#"
   xmlns:svg="http://www.w3.org/2000/svg"
   xmlns="http://www.w3.org/2000/svg"
   xmlns:sodipodi="http://sodipodi.sourceforge.net/DTD/sodipodi-0.dtd"
   xmlns:inkscape="http://www.inkscape.org/namespaces/inkscape"
   width="210mm"
   height="297mm"
   id="svg2861"
   version="1.1"
   inkscape:version="0.48.1 "
   sodipodi:docname="onouo_fin.svg">
  <defs
     id="defs2863">
    <inkscape:perspective
       sodipodi:type="inkscape:persp3d"
       inkscape:vp_x="0 : 526.18109 : 1"
       inkscape:vp_y="0 : 1000 : 0"
       inkscape:vp_z="744.09448 : 526.18109 : 1"
       inkscape:persp3d-origin="372.04724 : 350.78739 : 1"
       id="perspective2869" />
    <inkscape:perspective
       id="perspective2848"
       inkscape:persp3d-origin="0.5 : 0.33333333 : 1"
       inkscape:vp_z="1 : 0.5 : 1"
       inkscape:vp_y="0 : 1000 : 0"
       inkscape:vp_x="0 : 0.5 : 1"
       sodipodi:type="inkscape:persp3d" />
    <inkscape:perspective
       id="perspective2847"
       inkscape:persp3d-origin="0.5 : 0.33333333 : 1"
       inkscape:vp_z="1 : 0.5 : 1"
       inkscape:vp_y="0 : 1000 : 0"
       inkscape:vp_x="0 : 0.5 : 1"
       sodipodi:type="inkscape:persp3d" />
    <inkscape:perspective
       id="perspective3666"
       inkscape:persp3d-origin="0.5 : 0.33333333 : 1"
       inkscape:vp_z="1 : 0.5 : 1"
       inkscape:vp_y="0 : 1000 : 0"
       inkscape:vp_x="0 : 0.5 : 1"
       sodipodi:type="inkscape:persp3d" />
  </defs>
  <sodipodi:namedview
     id="base"
     pagecolor="#ffffff"
     bordercolor="#666666"
     borderopacity="1.0"
     inkscape:pageopacity="0.0"
     inkscape:pageshadow="2"
     inkscape:zoom="0.49497475"
     inkscape:cx="1042.5961"
     inkscape:cy="822.4918"
     inkscape:document-units="px"
     inkscape:current-layer="layer1"
     showgrid="false"
     inkscape:window-width="1264"
     inkscape:window-height="956"
     inkscape:window-x="0"
     inkscape:window-y="0"
     inkscape:window-maximized="1" />
  <metadata
     id="metadata2866">
    <rdf:RDF>
      <cc:Work
         rdf:about="">
        <dc:format>image/svg+xml</dc:format>
        <dc:type
           rdf:resource="http://purl.org/dc/dcmitype/StillImage" />
        <dc:title />
      </cc:Work>
    </rdf:RDF>
  </metadata>
  <g
     inkscape:label="Calque 1"
     inkscape:groupmode="layer"
     id="layer1">
    <path
       style="fill:#000000;fill-opacity:1;stroke:none"
       d="M 119.28125 41.53125 C 94.579781 41.53125 69.564579 60.75257 63.21875 84.625 L 40.90625 168.65625 C 34.560421 192.52868 49.329799 211.75 74.03125 211.75 L 269.25 211.75 C 293.95148 211.75 318.93542 192.52868 325.28125 168.65625 L 347.625 84.625 C 353.97083 60.75257 339.20148 41.53125 314.5 41.53125 L 119.28125 41.53125 z M 134.4375 74.4375 L 156.9375 74.4375 C 168.10738 74.437621 176.57779 78.453041 182.375 86.40625 C 188.17195 94.359685 189.59411 103.89259 186.625 115.0625 L 181.53125 134.1875 C 179.41021 141.82271 174.11659 145.65627 165.5625 145.65625 C 157.00813 145.65627 153.75398 141.82271 155.875 134.1875 C 157.54661 127.80664 159.2345 121.4349 160.9375 115.0625 C 162.20991 110.25525 161.60336 106.14351 159.09375 102.75 C 156.58392 99.356687 152.95528 97.656356 148.21875 97.65625 C 142.40595 97.65628 136.59405 97.656371 130.78125 97.65625 C 125.90316 97.656356 121.27707 99.356687 117 102.75 C 112.72283 106.14351 109.99124 110.25525 108.71875 115.0625 C 106.57934 122.763 104.52814 130.47379 102.4375 138.1875 C 101.16494 142.9949 101.74434 147.10663 104.21875 150.5 C 106.69308 153.89346 110.34886 155.5938 115.15625 155.59375 C 137.30997 155.59384 159.47342 156.22068 181.625 155.875 C 187.72512 155.35493 192.8299 152.18448 195.28125 147.15625 C 197.7326 142.12802 197.99637 136.96929 199.375 131.84375 C 200.75353 126.71835 202.17977 121.62145 203.59375 116.53125 C 206.28013 105.14924 212.66753 95.32997 222.8125 87.09375 C 232.95733 78.857756 243.73462 74.718871 255.1875 74.71875 L 278.4375 74.71875 C 289.11249 74.718871 297.32776 78.456111 303.125 85.84375 C 308.92192 93.231615 310.74572 102.17691 308.625 112.78125 C 304.01898 131.0346 298.90743 149.18808 294.125 167.40625 C 292.00396 175.04146 286.64785 178.87502 278.09375 178.875 C 269.53938 178.87502 266.34773 175.04146 268.46875 167.40625 C 272.90951 149.98849 277.67893 132.66715 282.46875 115.34375 C 283.74113 110.5365 283.10333 106.42476 280.59375 103.03125 C 278.08389 99.637937 274.4865 97.937606 269.75 97.9375 L 251.53125 97.9375 C 246.7238 97.937606 242.12077 99.637937 237.84375 103.03125 C 233.56653 106.42476 230.83494 110.5365 229.5625 115.34375 C 228.0778 120.64605 226.63258 125.9791 225.21875 131.28125 C 223.80473 136.58352 222.38258 141.85409 220.96875 147.15625 C 218.21151 157.40724 212.62743 165.17066 204.25 170.4375 C 195.87243 175.70439 187.39385 178.41702 178.875 178.59375 C 154.68321 178.81696 130.58763 178.59414 106.4375 178.6875 C 95.267466 178.68752 86.797076 174.73051 81 166.8125 C 75.202894 158.89457 73.780743 149.35755 76.75 138.1875 L 83.03125 115.0625 C 86.000476 103.89259 92.492355 94.359685 102.53125 86.40625 C 112.57007 78.453041 123.19675 74.437621 134.4375 74.4375 z "
       id="rect3948-1-8-5" />
    <g
       id="g3745-1-3"
       transform="matrix(1.5081862,0,0,1.5081862,-312.71983,10.519774)"
       style="fill:#ffffff"
       inkscape:export-filename="F:\Mes Docs\onouo7.png"
       inkscape:export-xdpi="269"
       inkscape:export-ydpi="269">
      <g
         id="text2854-1-6-8"
         style="font-size:144px;font-style:italic;font-variant:normal;font-weight:normal;font-stretch:normal;text-align:start;line-height:125%;writing-mode:lr-tb;text-anchor:start;fill:#ffffff;fill-opacity:1;stroke:none;font-family:Sonic Empire;-inkscape-font-specification:Sonic Empire Italic"
         transform="translate(193.404,2.102847)" />
      <g
         id="text2854-1-0-7-2"
         style="font-size:144px;font-style:italic;font-variant:normal;font-weight:normal;font-stretch:normal;text-align:start;line-height:125%;writing-mode:lr-tb;text-anchor:start;fill:#ffffff;fill-opacity:1;stroke:none;font-family:Sonic Empire;-inkscape-font-specification:Sonic Empire Italic"
         transform="translate(200.29649,14.74308)" />
    </g>
    <g
       style="font-size:144px;font-style:normal;font-weight:normal;line-height:125%;fill:#000000;fill-opacity:1;stroke:none;font-family:Sonic Empire;-inkscape-font-specification:Sonic Empire"
       id="text3826-1-7"
       transform="matrix(1.5081862,0,0,1.5081862,-204.38297,255.9033)"
       inkscape:export-filename="F:\Mes Docs\onouo7.png"
       inkscape:export-xdpi="269"
       inkscape:export-ydpi="269">
      <path
         d="m 405.88461,-66.472092 c 3.14057,2.7e-5 6.14057,-1.124972 9,-3.375 2.85931,-2.249967 4.71087,-4.968714 5.55469,-8.15625 0.70305,-2.531209 1.39446,-5.085894 2.07422,-7.664062 0.67961,-2.578077 1.37102,-5.132761 2.07422,-7.664063 0.84367,-3.187443 0.43352,-5.90619 -1.23047,-8.156253 -1.66414,-2.24993 -4.06648,-3.37493 -7.20703,-3.375 -5.31216,10e-6 1.1135,1.3e-4 -11.55469,0 -3.23441,7e-5 -6.26957,1.12507 -9.10547,3.375 -2.83597,2.250063 -4.67581,4.96881 -5.51953,8.156253 -0.70315,2.531302 -1.39456,5.085986 -2.07422,7.664063 -0.67971,2.578168 -1.37112,5.132853 -2.07422,7.664062 -0.84377,3.187536 -0.44533,5.906283 1.19532,8.15625 1.64059,2.250028 4.05465,3.375027 7.24218,3.375 23.66915,-3e-6 0.0191,5.9e-5 11.625,0 z m 35.71875,-26.859375 -4.14843,15.328125 c -1.96884,7.406281 -6.29305,13.7344 -12.97266,18.984375 -6.67976,5.250014 -13.69928,7.875012 -21.05859,7.875 l -14.92969,0 c -7.40627,1.2e-5 -13.03127,-2.624986 -16.875,-7.875 -3.84376,-5.249975 -4.78126,-11.578094 -2.8125,-18.984375 l 4.14844,-15.328125 c 1.96873,-7.406193 6.28123,-13.746023 12.9375,-19.019533 6.65621,-5.27336 13.7109,-7.91007 21.16406,-7.91015 l 14.85937,0 c 7.40617,8e-5 13.03117,2.63679 16.875,7.91015 3.84366,5.27351 4.78116,11.61334 2.8125,19.019533 z"
         style="font-style:italic;font-variant:normal;font-stretch:normal;text-align:start;line-height:125%;writing-mode:lr-tb;text-anchor:start;fill:#000000;font-family:Sonic Empire;-inkscape-font-specification:Sonic Empire Italic"
         id="path3831-8-9"
         sodipodi:nodetypes="cscscsccscscsccccsccsccsccsc"
         inkscape:connector-curvature="0" />
      <path
         style="font-style:italic;font-variant:normal;font-stretch:normal;text-align:start;line-height:125%;writing-mode:lr-tb;text-anchor:start;fill:#000000;font-family:Sonic Empire;-inkscape-font-specification:Sonic Empire Italic"
         d="m 517.04911,-119.40625 c -5.67189,8e-5 -9.20314,2.5157 -10.5625,7.53125 l -3.625,13.5625 c -1.89287,6.926494 -3.8625,14.35206 -5.62505,21.09375 -0.89068,3.187536 -2.76568,5.906283 -5.625,8.15625 -2.85942,2.250028 -5.85942,3.375027 -9,3.375 l -12.09375,0 c -3.18753,2.7e-5 -5.57816,-1.124972 -7.21875,-3.375 -1.64065,-2.249967 -2.06252,-4.968714 -1.21875,-8.15625 l 9.28125,-34.59375 c 1.35934,-5.01555 -0.7969,-7.53117 -6.46875,-7.53125 -5.67189,8e-5 -9.17189,2.5157 -10.53125,7.53125 l -9.28125,34.59375 c -1.96876,7.406281 -1.03126,13.718775 2.8125,18.96875 3.84373,5.250014 9.46873,7.875012 16.875,7.875 l 15.40625,0 c 7.35932,1.2e-5 14.35151,-2.624986 21.03125,-7.875 6.67962,-5.249975 11.03117,-11.562469 13,-18.96875 3.12393,-11.823105 6.55074,-24.37899 9.31245,-34.65625 1.35934,-5.01555 -0.7969,-7.53117 -6.46875,-7.53125 z"
         transform="translate(0,-0.782929)"
         id="path3833-9-3"
         sodipodi:nodetypes="ccccsccsccsccsccscccc"
         inkscape:connector-curvature="0" />
    </g>
    <path
       d="m 638.05485,155.65589 c 4.73656,3e-5 9.26112,-1.69668 13.57368,-5.09013 4.31237,-3.39338 7.10486,-7.49376 8.3775,-12.30115 1.06033,-3.81753 2.10311,-7.67048 3.12831,-11.55884 1.02498,-3.88821 2.06776,-7.74116 3.12831,-11.55883 1.27241,-4.80725 0.65383,-8.90763 -1.85578,-12.30114 -2.50983,-3.393316 -6.133,-5.090026 -10.86954,-5.090126 -4.10728,5e-6 -2.59058,1.68e-4 -17.42662,0 -4.8781,1e-4 -9.45568,1.69681 -13.73275,5.090126 -4.27717,3.39351 -7.05199,7.49389 -8.32448,12.30114 -1.06048,3.81767 -2.10325,7.67062 -3.12831,11.55883 -1.02512,3.88836 -2.0679,7.74131 -3.12831,11.55884 -1.27256,4.80739 -0.67164,8.90777 1.80277,12.30115 2.47431,3.39345 6.11517,5.09016 10.92256,5.09013 5.92781,-1e-5 11.19888,0 17.53266,0 z m 53.87053,-40.50895 -6.25661,23.11767 c -2.96938,11.17005 -9.49109,20.71404 -19.56519,28.63197 -10.07432,7.91799 -20.66106,11.87698 -31.76027,11.87697 l -22.51675,0 c -11.17004,1e-5 -19.65358,-3.95898 -25.45065,-11.87697 -5.7971,-7.91793 -7.21103,-17.46192 -4.24177,-28.63197 l 6.25662,-23.11767 c 2.96921,-11.16991 9.47327,-20.731556 19.51216,-28.684986 10.0388,-7.95321 20.67859,-11.92986 31.91934,-11.92998 l 22.4107,0 c 11.16988,1.2e-4 19.65343,3.97677 25.45064,11.92998 5.79696,7.95343 7.21088,17.515076 4.24178,28.684986 z"
       style="font-size:144px;font-style:italic;font-variant:normal;font-weight:normal;font-stretch:normal;text-align:start;line-height:125%;writing-mode:lr-tb;text-anchor:start;fill:#000000;fill-opacity:1;stroke:none;font-family:Sonic Empire;-inkscape-font-specification:Sonic Empire Italic"
       id="path3831-2-2-1"
       sodipodi:nodetypes="cscscsccscscsccccsccsccsccsc"
       inkscape:export-filename="F:\Mes Docs\onouo7.png"
       inkscape:export-xdpi="269"
       inkscape:export-ydpi="269"
       inkscape:connector-curvature="0" />
    <g
       id="g3745-1-3-4"
       transform="matrix(1.5081862,0,0,1.5081862,-296.65557,585.11787)"
       style="fill:#ffffff"
       inkscape:export-filename="F:\Mes Docs\onouo7.png"
       inkscape:export-xdpi="269"
       inkscape:export-ydpi="269">
      <g
         id="text2854-1-6-8-0"
         style="font-size:144px;font-style:italic;font-variant:normal;font-weight:normal;font-stretch:normal;text-align:start;line-height:125%;writing-mode:lr-tb;text-anchor:start;fill:#ffffff;fill-opacity:1;stroke:none;font-family:Sonic Empire;-inkscape-font-specification:Sonic Empire Italic"
         transform="translate(193.404,2.102847)" />
      <g
         id="text2854-1-0-7-2-4"
         style="font-size:144px;font-style:italic;font-variant:normal;font-weight:normal;font-stretch:normal;text-align:start;line-height:125%;writing-mode:lr-tb;text-anchor:start;fill:#ffffff;fill-opacity:1;stroke:none;font-family:Sonic Empire;-inkscape-font-specification:Sonic Empire Italic"
         transform="translate(200.29649,14.74308)" />
    </g>
  </g>
</svg>
