<?xml version="1.0" encoding="UTF-8" standalone="no"?>
<!-- Created with Inkscape (http://www.inkscape.org/) -->

<svg
   xmlns:dc="http://purl.org/dc/elements/1.1/"
   xmlns:cc="http://creativecommons.org/ns#"
   xmlns:rdf="http://www.w3.org/1999/02/22-rdf-syntax-ns#"
   xmlns:svg="http://www.w3.org/2000/svg"
   xmlns="http://www.w3.org/2000/svg"
   xmlns:sodipodi="http://sodipodi.sourceforge.net/DTD/sodipodi-0.dtd"
   xmlns:inkscape="http://www.inkscape.org/namespaces/inkscape"
   width="210mm"
   height="297mm"
   id="svg2962"
   version="1.1"
   inkscape:version="0.47 r22583"
   sodipodi:docname="onouo7.svg">
  <defs
     id="defs2964">
    <inkscape:perspective
       sodipodi:type="inkscape:persp3d"
       inkscape:vp_x="0 : 526.18109 : 1"
       inkscape:vp_y="0 : 1000 : 0"
       inkscape:vp_z="744.09448 : 526.18109 : 1"
       inkscape:persp3d-origin="372.04724 : 350.78739 : 1"
       id="perspective2970" />
    <inkscape:perspective
       id="perspective2931"
       inkscape:persp3d-origin="0.5 : 0.33333333 : 1"
       inkscape:vp_z="1 : 0.5 : 1"
       inkscape:vp_y="0 : 1000 : 0"
       inkscape:vp_x="0 : 0.5 : 1"
       sodipodi:type="inkscape:persp3d" />
  </defs>
  <sodipodi:namedview
     id="base"
     pagecolor="#ffffff"
     bordercolor="#666666"
     borderopacity="1.0"
     inkscape:pageopacity="0.0"
     inkscape:pageshadow="2"
     inkscape:zoom="0.7"
     inkscape:cx="162.37786"
     inkscape:cy="739.19587"
     inkscape:document-units="px"
     inkscape:current-layer="layer1"
     showgrid="false"
     inkscape:window-width="1272"
     inkscape:window-height="968"
     inkscape:window-x="0"
     inkscape:window-y="0"
     inkscape:window-maximized="1" />
  <metadata
     id="metadata2967">
    <rdf:RDF>
      <cc:Work
         rdf:about="">
        <dc:format>image/svg+xml</dc:format>
        <dc:type
           rdf:resource="http://purl.org/dc/dcmitype/StillImage" />
        <dc:title />
      </cc:Work>
    </rdf:RDF>
  </metadata>
  <g
     inkscape:label="Calque 1"
     inkscape:groupmode="layer"
     id="layer1">
    <path
       style="fill:#b3b3b3;fill-opacity:1;stroke:none"
       d="m 111.89514,17.496843 572.2724,0 c 24.70148,0 39.47876,19.218591 33.13294,43.091021 l -22.33642,84.027496 c -6.34585,23.87246 -31.34061,43.09105 -56.04209,43.09105 l -572.2724,0 c -24.701466,0 -39.47875,-19.21859 -33.132905,-43.09105 L 55.853068,60.587864 C 62.198912,36.715434 87.193675,17.496843 111.89514,17.496843 z"
       id="rect3948-6"
       sodipodi:nodetypes="ccccccccc"
       inkscape:export-filename="F:\Mes Docs\onouo7.png"
       inkscape:export-xdpi="269"
       inkscape:export-ydpi="269" />
    <path
       style="fill:#000000;fill-opacity:1;stroke:none"
       d="m 98.105221,17.496828 195.225849,0 c 24.70148,0 39.47877,19.218606 33.13294,43.091036 l -22.33644,84.027516 c -6.34583,23.87243 -31.34059,43.09103 -56.04207,43.09103 l -195.22585,0 c -24.701465,0 -39.478749,-19.2186 -33.13292,-43.09103 L 42.063164,60.587864 C 48.408993,36.715434 73.403755,17.496828 98.105221,17.496828 z"
       id="rect3948-1-8"
       sodipodi:nodetypes="ccccccccc"
       inkscape:export-filename="F:\Mes Docs\onouo7.png"
       inkscape:export-xdpi="269"
       inkscape:export-ydpi="269" />
    <path
       style="font-size:144px;font-style:italic;font-variant:normal;font-weight:normal;font-stretch:normal;text-align:start;line-height:125%;writing-mode:lr-tb;text-anchor:start;fill:#ffffff;fill-opacity:1;stroke:none;font-family:Sonic Empire;-inkscape-font-specification:Sonic Empire Italic"
       d="M 113.43373,50.398923 C 102.19298,50.399046 91.564987,54.416944 81.526168,62.370151 71.487273,70.323579 64.983235,79.855779 62.014009,91.025689 L 55.74561,114.16692 c -2.969257,11.17005 -1.555332,20.69047 4.241773,28.60841 5.797076,7.91801 14.280608,11.87698 25.450643,11.87696 24.150134,-0.0933 48.248284,0.1291 72.440064,-0.0941 8.51886,-0.17673 16.97882,-2.88674 25.35638,-8.15363 8.37744,-5.26683 13.92708,-13.03163 16.68431,-23.28262 1.41384,-5.30216 2.82776,-10.62794 4.24178,-15.93022 1.41383,-5.30215 2.89846,-10.580791 4.38316,-15.883085 1.27245,-4.807258 4.01781,-8.907634 8.29503,-12.301144 4.27702,-3.393321 8.81336,-5.090029 13.6208,-5.090128 l 18.23963,0 c 4.73651,9.9e-5 8.37736,1.696807 10.88722,5.090128 2.50958,3.39351 3.11048,7.493886 1.8381,12.301144 -4.8274,17.315315 -9.45952,34.686145 -13.99785,52.079555 -2.12102,7.63521 1.10745,11.4528 9.66182,11.45279 8.5541,1e-5 13.90344,-3.81758 16.02448,-11.45279 l 14.32776,-53.587741 c 0.14117,-0.565487 0.18836,-0.895395 0.18853,-1.036878 2.12072,-10.60434 0.28262,-19.6181 -5.51431,-27.00596 -5.79724,-7.387788 -14.02156,-11.075771 -24.69655,-11.075893 l -23.23549,0 c -11.45288,1.22e-4 -22.23404,4.112283 -32.37887,12.348275 -10.14497,8.236212 -16.59013,18.074759 -19.27651,29.456761 -1.41398,5.090203 -2.76898,10.192106 -4.14751,15.317516 -1.37863,5.12554 -1.64904,10.28928 -4.10038,15.31752 -2.45135,5.02823 -7.61495,8.15201 -13.71507,8.67207 -22.13374,0.52622 -44.27082,-0.28642 -66.407323,-0.23566 -4.807389,4e-5 -8.46002,-1.69666 -10.93435,-5.09013 -2.474406,-3.39336 -3.063533,-7.49374 -1.790971,-12.30114 2.090642,-7.71371 4.128991,-15.440729 6.268399,-23.141231 1.272487,-4.807257 4.017853,-8.907634 8.295024,-12.301144 4.277061,-3.393321 8.884111,-5.090028 13.762201,-5.090128 5.8128,1.15e-4 11.6256,3e-5 17.4384,0 4.73654,1e-4 8.37739,1.696807 10.88722,5.090128 2.50961,3.39351 3.11051,7.493887 1.8381,12.301144 -1.68642,6.377196 -3.43973,12.736291 -5.043,19.135111 -2.12102,7.63521 1.06032,11.45281 9.61469,11.45279 8.55409,2e-5 13.90344,-3.81758 16.02448,-11.45279 l 5.0902,-19.135111 c 2.96911,-11.16991 1.55518,-20.70211 -4.24177,-28.655538 -5.79721,-7.953207 -14.28076,-11.971105 -25.45064,-11.971228 l -22.4814,0 -8e-5,0 z"
       id="path2838-7-8-7-0"
       sodipodi:nodetypes="csccsccscscsccsccscccsccscssccsccsccsccsccsccc" />
    <g
       transform="translate(-15.4185,11.669908)"
       style="font-size:144px;font-style:italic;font-variant:normal;font-weight:normal;font-stretch:normal;text-align:start;line-height:125%;writing-mode:lr-tb;text-anchor:start;fill:#ff8080;fill-opacity:1;stroke:none;font-family:Sonic Empire;-inkscape-font-specification:Sonic Empire Italic"
       id="text2854-1-0-7-2-8" />
    <g
       style="font-size:144px;font-style:normal;font-weight:normal;line-height:125%;fill:#000000;fill-opacity:1;stroke:none;font-family:Sonic Empire;-inkscape-font-specification:Sonic Empire"
       id="text3826-1-7-0"
       transform="matrix(1.5081862,0,0,1.5081862,-216.3191,231.85698)"
       inkscape:export-filename="F:\Mes Docs\onouo7.png"
       inkscape:export-xdpi="269"
       inkscape:export-ydpi="269">
      <path
         d="m 405.88461,-66.472092 c 3.14057,2.7e-5 6.14057,-1.124972 9,-3.375 2.85931,-2.249967 4.71087,-4.968714 5.55469,-8.15625 0.70305,-2.531209 1.39446,-5.085894 2.07422,-7.664062 0.67961,-2.578077 1.37102,-5.132761 2.07422,-7.664063 0.84367,-3.187443 0.43352,-5.90619 -1.23047,-8.156253 -1.66414,-2.24993 -4.06648,-3.37493 -7.20703,-3.375 -5.76569,7e-5 -1.16412,7e-5 -2.19531,0 -1.03131,7e-5 2.41791,7e-5 2.34765,0 -0.0704,7e-5 -0.60943,7e-5 -1.61719,0 -1.00786,7e-5 -4.37114,7e-5 -10.08984,0 -3.23441,7e-5 -6.26957,1.12507 -9.10547,3.375 -2.83597,2.250063 -4.67581,4.96881 -5.51953,8.156253 -0.70315,2.531302 -1.39456,5.085986 -2.07422,7.664063 -0.67971,2.578168 -1.37112,5.132853 -2.07422,7.664062 -0.84377,3.187536 -0.44533,5.906283 1.19532,8.15625 1.64059,2.250028 4.05465,3.375027 7.24218,3.375 5.76559,2.7e-5 9.15231,2.7e-5 10.16016,0 1.00777,2.7e-5 1.54683,2.7e-5 1.61719,0 0.0703,2.7e-5 0.62105,2.7e-5 1.65234,0 1.0312,2.7e-5 -7.57036,2.7e-5 -1.80469,0 z m 35.71875,-26.859375 -4.14843,15.328125 c -1.96884,7.406281 -6.29305,13.7344 -12.97266,18.984375 -6.67976,5.250014 -13.69928,7.875012 -21.05859,7.875 l -14.92969,0 c -7.40627,1.2e-5 -13.03127,-2.624986 -16.875,-7.875 -3.84376,-5.249975 -4.78126,-11.578094 -2.8125,-18.984375 l 4.14844,-15.328125 c 1.96873,-7.406193 6.28123,-13.746023 12.9375,-19.019533 6.65621,-5.27336 13.7109,-7.91007 21.16406,-7.91015 l 14.85937,0 c 7.40617,8e-5 13.03117,2.63679 16.875,7.91015 3.84366,5.27351 4.78116,11.61334 2.8125,19.019533 z"
         style="font-style:italic;font-variant:normal;font-stretch:normal;text-align:start;line-height:125%;writing-mode:lr-tb;text-anchor:start;fill:#000000;font-family:Sonic Empire;-inkscape-font-specification:Sonic Empire Italic"
         id="path3831-8-9-2"
         sodipodi:nodetypes="cscscssssssscscssssscccsccsccsccsc" />
      <path
         style="font-style:italic;font-variant:normal;font-stretch:normal;text-align:start;line-height:125%;writing-mode:lr-tb;text-anchor:start;fill:#000000;font-family:Sonic Empire;-inkscape-font-specification:Sonic Empire Italic"
         d="m 517.04911,-119.40625 c -5.67189,8e-5 -9.20314,2.5157 -10.5625,7.53125 l -3.625,13.5625 -4.78125,17.75 0.0312,0 c -0.28036,1.061845 -0.65274,2.490733 -0.875,3.34375 -0.89068,3.187536 -2.76568,5.906283 -5.625,8.15625 -2.85942,2.250028 -5.85942,3.375027 -9,3.375 l -12.09375,0 c -3.18753,2.7e-5 -5.57816,-1.124972 -7.21875,-3.375 -1.64065,-2.249967 -2.06252,-4.968714 -1.21875,-8.15625 l 9.28125,-34.59375 c 1.35934,-5.01555 -0.7969,-7.53117 -6.46875,-7.53125 -5.67189,8e-5 -9.17189,2.5157 -10.53125,7.53125 l -9.28125,34.59375 c -1.96876,7.406281 -1.03126,13.718775 2.8125,18.96875 3.84373,5.250014 9.46873,7.875012 16.875,7.875 l 15.40625,0 c 7.35932,1.2e-5 14.35151,-2.624986 21.03125,-7.875 6.67962,-5.249975 11.03117,-11.562469 13,-18.96875 -1e-4,-0.140586 0.0155,-0.296836 0.0625,-0.4375 0.0468,-0.140586 0.0781,-0.265586 0.125,-0.40625 0.13085,-0.495811 0.3246,-1.182966 0.5,-1.84375 l 0.0312,0 8.59375,-31.96875 c 1.35934,-5.01555 -0.7969,-7.53117 -6.46875,-7.53125 l 1e-4,0 z"
         transform="translate(0,-0.782929)"
         id="path3833-9-3-4"
         sodipodi:nodetypes="ccccccsccsccsccsccscssccccc" />
    </g>
    <path
       d="m 626.11874,131.60471 c 4.73656,3e-5 9.26112,-1.69668 13.57367,-5.09013 4.31237,-3.39338 7.10487,-7.49376 8.37751,-12.30115 1.06033,-3.81753 2.1031,-7.67048 3.12831,-11.55884 1.02498,-3.888209 2.06775,-7.741157 3.12831,-11.558829 1.27241,-4.807258 0.65383,-8.907639 -1.85578,-12.301148 -2.50983,-3.393314 -6.13301,-5.090023 -10.86954,-5.090129 -8.69574,1.06e-4 -1.75571,1.06e-4 -3.31094,0 -1.55541,1.06e-4 3.64666,1.06e-4 3.54069,0 -0.10617,1.06e-4 -0.91913,1.06e-4 -2.43902,0 -1.52004,1.06e-4 -6.59249,1.06e-4 -15.21736,0 -4.87809,1.06e-4 -9.45568,1.696815 -13.73274,5.090129 -4.27717,3.393509 -7.05199,7.49389 -8.32448,12.301148 -1.06048,3.817672 -2.10326,7.67062 -3.12831,11.558829 -1.02513,3.88836 -2.0679,7.74131 -3.12831,11.55884 -1.27256,4.80739 -0.67164,8.90777 1.80276,12.30115 2.47432,3.39345 6.11517,5.09016 10.92256,5.09013 8.69558,3e-5 13.80339,3e-5 15.32341,0 1.51991,3e-5 2.33291,3e-5 2.43903,0 0.10602,3e-5 0.93666,3e-5 2.49203,0 1.55525,3e-5 -11.41751,3e-5 -2.7218,0 z m 53.87052,-40.508949 -6.2566,23.117669 c -2.96938,11.17005 -9.4911,20.71404 -19.56519,28.63197 -10.07432,7.91799 -20.66107,11.87698 -31.76028,11.87696 l -22.51675,0 c -11.17003,2e-5 -19.65358,-3.95897 -25.45064,-11.87696 -5.79711,-7.91793 -7.21103,-17.46192 -4.24177,-28.63197 l 6.25662,-23.117669 c 2.96921,-11.169918 9.47326,-20.731562 19.51216,-28.684997 10.0388,-7.953209 20.67859,-11.929859 31.91934,-11.929979 l 22.4107,0 c 11.16988,1.2e-4 19.65343,3.97677 25.45064,11.929979 5.79695,7.953435 7.21088,17.515079 4.24177,28.684997 z"
       style="font-size:144px;font-style:italic;font-variant:normal;font-weight:normal;font-stretch:normal;text-align:start;line-height:125%;writing-mode:lr-tb;text-anchor:start;fill:#000000;fill-opacity:1;stroke:none;font-family:Sonic Empire;-inkscape-font-specification:Sonic Empire Italic"
       id="path3831-2-2-1-8"
       sodipodi:nodetypes="cscscssssssscscssssscccsccsccsccsc"
       inkscape:export-filename="F:\Mes Docs\onouo7.png"
       inkscape:export-xdpi="269"
       inkscape:export-ydpi="269" />
  </g>
</svg>
