<?xml version="1.0" encoding="UTF-8"?>
<!-- Created with EazyDraw for Mac ( http://www.eazydraw.com/ ) -->

<svg
    version="1.1"
    xmlns:dc="http://purl.org/dc/elements/1.1/"
    xmlns:cc="http://creativecommons.org/ns#"
    xmlns:rdf="http://www.w3.org/1999/02/22-rdf-syntax-ns#"
    xmlns:svg="http://www.w3.org/2000/svg"
    xmlns:xlink="http://www.w3.org/1999/xlink"
    xmlns="http://www.w3.org/2000/svg"
    width="744.094575"
    height="1052.3623275"
    viewBox="0, 0, 595.27566, 841.889862"
    preserveAspectRatio="none"
    id="svg2">
   <defs
       id="defs_B690960F"/>
   <metadata
       id="metadata7">
      <rdf:RDF>
         <cc:Work
             rdf:about="">
            <dc:format>image/svg+xml</dc:format>
            <dc:type rdf:resource="http://purl.org/dc/dcmitype/StillImage"/>
            <dc:title></dc:title>
         </cc:Work>
      </rdf:RDF>
   </metadata>
   <g
       id="layer_Paper"
       style="fill:#000000;fill-opacity:1;stroke:#000000;stroke-opacity:1;fill-rule:nonzero;stroke-linecap:square;stroke-linejoin:miter;stroke-width:1;stroke-miterlimit:10">
      <g
          id="AC02E40F">
         <path
             style="fill:#B3B3B3;stroke:none"
             id="AD44610F"
             d="M193.909173743,122.99024208 L422.818133743,122.99024208 C432.698725743,122.99024208 438.609637743,130.67767848 436.071309743,140.22665048 L427.136741743,173.83764888 C424.598401743,183.38663288 414.600497743,191.07406888 404.719905743,191.07406888
L175.810945743,191.07406888 C165.930359343,191.07406888 160.019445743,183.38663288 162.557783743,173.83764888 L171.492344943,140.22665048 C174.030682543,130.67767848 184.028587743,122.99024208 193.909173743,122.99024208
z"/>
         <path
             style="stroke:none"
             id="5E44610F"
             d="M188.393206143,122.99023608 L266.483545743,122.99023608 C276.364137743,122.99023608 282.275053743,130.67767848 279.736721743,140.22665048 L270.802145743,173.83765688 C268.263813743,183.38662888 258.265909743,191.07406888 248.385317743,191.07406888
L170.294977743,191.07406888 C160.414391743,191.07406888 154.503478143,183.38662888 157.041809743,173.83765688 L165.976383343,140.22665048 C168.514714943,130.67767848 178.512619743,122.99023608 188.393206143,122.99023608
z"/>
         <path
             style="fill:#FFFFFF;stroke:none"
             id="8F44610F"
             d="M194.524609743,136.15107408 C190.028309743,136.15112328 185.777112543,137.75828248 181.761584943,140.93956528 C177.746026943,144.12093648 175.144411743,147.93381648 173.956721343,152.40178048 L171.449361743,161.65827288
C170.261658943,166.12629288 170.827228943,169.93446088 173.146070943,173.10163688 C175.464901343,176.26884088 178.858314143,177.85242888 183.326328143,177.85242088 C192.986381743,177.81510088 202.625641743,177.90406088 212.302353743,177.81478088
C215.709897743,177.74408888 219.093881743,176.66008488 222.444905743,174.55332888 C225.795881743,172.44659688 228.015737743,169.34067688 229.118629743,165.24028088 C229.684165743,163.11941688 230.249733743,160.98910488 230.815341743,158.86819288
C231.380873743,156.74733288 231.974725743,154.63587648 232.568605743,152.51495888 C233.077585743,150.59205568 234.175729743,148.95190528 235.886617743,147.59450128 C237.597425743,146.23717288 239.411961743,145.55848968 241.334937743,145.55845008
L248.630789743,145.55845008 C250.525393743,145.55848968 251.981733743,146.23717288 252.985677743,147.59450128 C253.989509743,148.95190528 254.229869743,150.59205568 253.720917743,152.51495888 C251.789957743,159.44108488 249.937109743,166.38941688 248.121777743,173.34678088
C247.273369743,176.40086488 248.564757743,177.92790088 251.986505743,177.92789688 C255.408145743,177.92790088 257.547881743,176.40086488 258.396297743,173.34678088 L264.127401743,151.91168448 C264.183869743,151.68548968 264.202745743,151.55352648 264.202813743,151.49693328
C265.051101743,147.25519728 264.315861743,143.64969328 261.997089743,140.69454928 C259.678193743,137.73943408 256.388465743,136.26424088 252.118469743,136.26419208 L242.824273743,136.26419208 C238.243121743,136.26424088 233.930657743,137.90910528 229.872725743,141.20350208
C225.814737743,144.49798688 223.236673743,148.43340568 222.162121743,152.98620648 C221.596529743,155.02228768 221.054529743,157.06304888 220.503117743,159.11321288 C219.951665743,161.16342888 219.843501743,163.22892488 218.862965743,165.24022088
C217.882425743,167.25151288 215.816985743,168.50102488 213.376937743,168.70904888 C204.523441743,168.91953688 195.668609743,168.59448088 186.814008543,168.61478488 C184.891052943,168.61480088 183.430000543,167.93612088 182.440268543,166.57873288
C181.450506143,165.22138888 181.214855343,163.58123688 181.723880143,161.65827688 C182.560136943,158.57279288 183.375476543,155.48198528 184.231239743,152.40178448 C184.740234543,150.47888168 185.838380943,148.83873088 187.549249343,147.48132688
C189.260073743,146.12399848 191.102893743,145.44531568 193.054129743,145.44527568 C195.379249743,145.44532168 197.704369743,145.44528768 200.029489743,145.44527568 C201.924105743,145.44531568 203.380445743,146.12399848 204.384377743,147.48132688
C205.388221743,148.83873088 205.628581743,150.47888168 205.119617743,152.40178448 C204.445049743,154.95266288 203.743725743,157.49630088 203.102417743,160.05582888 C202.254009743,163.10991288 203.526545743,164.63695288 206.948293743,164.63694488
C210.369929743,164.63695288 212.509669743,163.10991288 213.358085743,160.05582888 L215.394165743,152.40178448 C216.581809743,147.93382048 216.016237743,144.12094048 213.697457743,140.93956928 C211.378573743,137.75828648 207.985153743,136.15112728 203.517201743,136.15107808
L194.524641743,136.15107808 L194.524609743,136.15107808 z"/>
         <g
             id="D454610F">
            <path
                style="stroke:none"
                id="B054610F"
                d="M307.483304781,168.633380144 C309.377930514,168.633396433 311.187753954,167.954713246 312.912775101,166.597328774 C314.637723854,165.239981102 315.75472275,163.59983042 316.263777822,161.676871297 C316.687909945,160.149857503 317.105019953,158.608681239 317.515101814,157.053338279
C317.925093183,155.498050217 318.342203191,153.956874556 318.766425806,152.429804658 C319.275390386,150.50690164 319.027957358,148.866750957 318.024114656,147.509345371 C317.020181463,146.15202002 315.570911049,145.47333623 313.676297381,145.473294001
C310.198003744,145.47333623 312.974013493,145.47333623 312.351922882,145.473294001 C311.729759878,145.47333623 313.81058628,145.47333623 313.768200215,145.473294001 C313.725729692,145.47333623 313.400546649,145.47333623 312.792590759,145.473294001
C312.184574541,145.47333623 310.155593548,145.47333623 306.705647779,145.473294001 C304.754410769,145.47333623 302.923376198,146.15202002 301.2125501,147.509345371 C299.501681773,148.866750957 298.391753254,150.50690164 297.882758509,152.429804658
C297.458566059,153.956874556 297.041456051,155.498050217 296.631434518,157.053338279 C296.221382821,158.608681239 295.804272813,160.149857503 295.380110526,161.676871297 C294.871085618,163.59983042 295.111454301,165.239981102 296.101216577,166.597328774
C297.090942656,167.954713246 298.547283447,168.633396433 300.470238951,168.633380144 C303.94847226,168.633396433 305.991594007,168.633396433 306.599604191,168.633380144 C307.207566114,168.633396433 307.532767255,168.633396433 307.575213648,168.633380144
C307.617623844,168.633396433 307.949877263,168.633396433 308.572028202,168.633380144 C309.194124846,168.633396433 304.00502321,168.633396433 307.483304781,168.633380144 z M329.031515113,152.429804658 L326.528873162,161.676871297
C325.341122235,166.144891616 322.732436696,169.962484315 318.702798446,173.129660253 C314.673069706,176.296859719 310.438372428,177.880454022 305.998688515,177.880446783 L296.991987543,177.880446783 C292.52397386,177.880454022 289.13055491,176.296859719 286.811730693,173.129660253
C284.492888378,169.962484315 283.927318553,166.144891616 285.115021218,161.676871297 L287.617669202,152.429804658 C288.805353769,147.961837427 291.406974964,144.137179781 295.422532787,140.955805777 C299.438054414,137.774522265 303.693968855,136.183862411 308.190270078,136.183814149
L317.154548788,136.183814149 C321.622502144,136.183862411 325.015921094,137.774522265 327.334805638,140.955805777 C329.653587626,144.137179781 330.219157451,147.961837427 329.031515113,152.429804658 z"/>
            <path
                style="stroke:none"
                id="8154610F"
                d="M374.546010713,136.227232417 C371.124304222,136.227280679 368.993991215,137.744890026 368.173924018,140.770643344 L365.987054028,148.95255348 L363.10264792,159.6606755 L363.121470084,159.6606755 C362.952336051,160.30125949 362.7276887,161.163271155 362.593604914,161.677874542
C362.0562804,163.600833665 360.92514075,165.240984348 359.200185964,166.59833202 C357.47517085,167.955716491 355.66534741,168.634399678 353.770715644,168.63438339 L346.474864901,168.63438339 C344.551909398,168.634399678 343.109703328,167.955716491 342.119977249,166.59833202
C341.130214973,165.240984348 340.875711568,163.600833665 341.384736476,161.677874542 L346.983877744,140.808347999 C347.803932876,137.782594681 346.503128311,136.264985334 343.081445951,136.264937072 C339.659739461,136.264985334 337.548278781,137.782594681 336.728211584,140.808347999
L331.129070316,161.677874542 C329.941367651,166.145894861 330.506937476,169.954061397 332.825779791,173.121237335 C335.144604008,176.2884368 338.538022958,177.872031104 343.006036641,177.872023865 L352.300234099,177.872023865
C356.739924045,177.872031104 360.958133831,176.2884368 364.987850506,173.121237335 C369.017494788,169.954061397 371.642673852,166.145894861 372.830418746,161.677874542 C372.830358419,161.593062596 372.839769501,161.498800959 372.868123401,161.413941957
C372.896356647,161.329130011 372.915239138,161.253720701 372.943532711,161.1688617 C373.022471177,160.869751576 373.139355608,160.455208501 373.245169951,160.056574377 L373.263992115,160.056574377 L378.448382178,140.770643344
C379.268437309,137.744890026 377.967632745,136.227280679 374.545950385,136.227232417 L374.546010713,136.227232417 z"/>
         </g>
         <path
             style="stroke:none"
             id="0354610F"
             d="M399.598613743,168.63338888 C401.493237743,168.63340088 403.303061743,167.95471688 405.028081743,166.59733688 C406.753029743,165.23998488 407.870029743,163.59983288 408.379085743,161.67687688 C408.803217743,160.14986488 409.220325743,158.60868488 409.630409743,157.05334088
C410.040401743,155.49805728 410.457509743,153.95687808 410.881733743,152.42980928 C411.390697743,150.50690608 411.143265743,148.86675368 410.139421743,147.50935008 C409.135489743,146.15202448 407.686217743,145.47334088 405.791605743,145.47329848
C402.313309743,145.47334088 405.089321743,145.47334088 404.467229743,145.47329848 C403.845065743,145.47334088 405.925893743,145.47334088 405.883505743,145.47329848 C405.841037743,145.47334088 405.515853743,145.47334088 404.907897743,145.47329848
C404.299881743,145.47334088 402.270901743,145.47334088 398.820953743,145.47329848 C396.869717743,145.47334088 395.038681743,146.15202448 393.327857743,147.50935008 C391.616989743,148.86675368 390.507061743,150.50690608 389.998065743,152.42980928
C389.573873743,153.95687808 389.156761743,155.49805728 388.746741743,157.05334088 C388.336689743,158.60868488 387.919581743,160.14986488 387.495417743,161.67687688 C386.986393743,163.59983288 387.226761743,165.23998488 388.216521743,166.59733688
C389.206249743,167.95471688 390.662589743,168.63340088 392.585545743,168.63338888 C396.063777743,168.63340088 398.106901743,168.63340088 398.714909743,168.63338888 C399.322873743,168.63340088 399.648073743,168.63340088 399.690521743,168.63338888
C399.732929743,168.63340088 400.065185743,168.63340088 400.687333743,168.63338888 C401.309433743,168.63340088 396.120329743,168.63340088 399.598613743,168.63338888 z M421.146821743,152.42980928 L418.644181743,161.67687688
C417.456429743,166.14489688 414.847741743,169.96249288 410.818105743,173.12966488 C406.788377743,176.29686088 402.553677743,177.88045688 398.113993743,177.88044888 L389.107293743,177.88044888 C384.639281743,177.88045688 381.245861743,176.29686088 378.927037743,173.12966488
C376.608193743,169.96249288 376.042625743,166.14489688 377.230329743,161.67687688 L379.732977743,152.42980928 C380.920661743,147.96184208 383.522281743,144.13718448 387.537841743,140.95581048 C391.553361743,137.77452688 395.809277743,136.18386688 400.305577743,136.18381888
L409.269857743,136.18381888 C413.737809743,136.18386688 417.131229743,137.77452688 419.450113743,140.95581048 C421.768893743,144.13718448 422.334465743,147.96184208 421.146821743,152.42980928 z"/>
      </g>
   </g>
</svg>
